<svg width="113" height="202" viewBox="0 0 113 202" fill="none" xmlns="http://www.w3.org/2000/svg">
<g opacity="0.67906">
<path fill-rule="evenodd" clip-rule="evenodd" d="M21.088 61.0531C14.0605 59.0487 4.19265 57.8455 6.28546 60.6518C9.12655 64.3944 16.0044 66.6662 21.088 66.9331C24.3772 67.2006 26.7694 66.6662 27.5169 65.33C29.3112 64.1268 25.8722 62.3893 21.088 61.0531Z" fill="#D1DFEC"/>
<path fill-rule="evenodd" clip-rule="evenodd" d="M19.4893 68.7008C22.7267 69.8997 25.2603 71.6118 24.9786 74.1801C24.6968 75.2075 22.4449 75.2075 19.4893 74.5229C13.5774 73.1526 5.41349 69.0436 8.79174 67.3305C10.059 66.6458 15.4074 66.9886 19.4893 68.7008Z" fill="#D1DFEC"/>
<path fill-rule="evenodd" clip-rule="evenodd" d="M20.4835 80.6831C17.8394 80.1306 15.1952 79.026 16.2296 78C16.6899 78.079 18.6442 78.158 20.4835 78.3945C22.7824 78.6315 24.9669 79.1836 24.9669 80.2886C25.3121 81.1567 22.8975 81.1567 20.4835 80.6831Z" fill="#D1DFEC"/>
<path fill-rule="evenodd" clip-rule="evenodd" d="M46.5473 193.78H46.9877C47.1337 191.557 53.4404 192.391 51.6804 195.447C50.3608 196.696 48.4541 197.113 46.5473 196.974C45.2277 196.835 43.9073 196.28 42.7338 195.447C40.3874 193.78 38.6274 190.585 39.0678 186.279C39.5074 182.946 40.5342 180.028 42.7338 176.833C43.7605 175.306 45.0809 173.917 46.5473 172.25C46.9877 171.833 47.4273 171.416 47.7209 171C49.1873 171.694 51.094 172.667 53 173.639V175.723C50.0672 178.084 48.1605 179.612 46.5473 181.556C46.1069 182.112 45.6673 182.668 45.3737 183.223C42.8806 186.974 43.7605 193.224 46.5473 193.78Z" fill="#D1DFEC"/>
<path fill-rule="evenodd" clip-rule="evenodd" d="M55.0836 53.061V54.939C54.7076 54.189 55.0836 53.813 55.0836 53.061Z" fill="#D1DFEC"/>
<path fill-rule="evenodd" clip-rule="evenodd" d="M57.714 165.417C56.7138 164.555 55.5714 163.838 54.4282 163.12L54 137L57.714 139.009L62 141.018L61.1428 168C60.2856 167.282 59.0002 166.278 57.714 165.417Z" fill="#D1DFEC"/>
<path fill-rule="evenodd" clip-rule="evenodd" d="M53.9361 202C53.1701 202 52.4042 201.725 51.6382 201.037L51 176L53.9361 177.789L57 179.714L56.3618 201.037C55.4681 201.725 54.7021 202 53.9361 202Z" fill="#D1DFEC"/>
<path fill-rule="evenodd" clip-rule="evenodd" d="M57.8665 123.786L54.4004 121.867L54 95H57.8665H62V117.586L61.8665 126L57.8665 123.786Z" fill="#D1DFEC"/>
<path fill-rule="evenodd" clip-rule="evenodd" d="M59.436 115V93H60.564L59.436 115Z" fill="#D1DFEC"/>
<path fill-rule="evenodd" clip-rule="evenodd" d="M56.3977 18.1403L51.9038 20.8201L51.6135 20.3966L61.1086 14.9124L69.8812 9.81933L70.1714 10.1016L60.8925 15.6017L56.3977 18.1403ZM41.6098 26.7429L39.8699 27.8714L39.5797 27.5891L41.6098 26.3201L43.6391 25.0512C43.6391 25.4739 43.6391 25.4739 43.7842 25.6151L41.6098 26.7429ZM45.3789 7.14027C45.2346 6.99911 45.0895 6.99911 44.9444 6.99911C44.9444 7.14027 45.0895 7.42184 44.9444 7.42184C44.3647 7.14027 44.0744 7.14027 43.6391 7.14027V7.28068C43.9293 7.56301 44.3647 7.98574 44.2196 8.26806H43.3496L43.2045 8.55038C43.6391 9.11427 44.3647 9.67892 44.9444 10.1016L45.2346 15.884C45.2346 16.0589 45.321 16.2294 45.3867 16.3998C45.4268 16.5049 45.3789 16.6228 45.3789 16.7302C45.5241 17.0118 45.5241 17.2941 45.6692 17.5764L45.9594 17.1529C46.2489 17.5764 46.2489 18.2815 46.5391 18.5638L46.8293 18.4226C46.9737 18.7042 47.1188 18.9865 47.1188 19.1277C47.2639 19.5504 47.409 19.5504 47.6993 19.6916C47.9887 19.6916 48.7135 19.8327 49.0038 20.1143V20.2555C48.5692 20.3966 48.279 19.9739 47.9887 20.1143C47.1188 19.9739 46.2489 20.2555 45.3789 20.5378C44.0744 21.1017 43.0594 22.2302 42.9143 23.0764C43.3496 22.7941 43.4947 22.5125 43.4947 22.7941C43.2045 23.0764 43.2045 23.6403 43.3496 24.6277C43.6391 24.3454 43.9293 23.9226 43.9293 23.9226C43.7842 24.3454 43.6391 24.7689 43.6391 24.7689L41.6098 25.8966L39 27.4479C39 28.1537 39 28.2949 39.7248 28.5765C39.7248 28.5765 40.5947 28.0126 41.6098 27.4479C42.7692 26.7429 44.3647 25.8966 45.3789 25.3328C46.394 24.7689 47.1188 24.3454 47.1188 24.2042L47.8444 25.0512C48.279 25.7562 49.7286 25.4739 50.3083 26.0378V25.6151C50.5985 26.3201 52.3383 26.179 52.6286 26.6017L52.4835 26.3201C52.918 26.6017 53.3534 26.3201 53.788 26.6017L53.6428 26.3201C53.6428 26.3201 54.9481 26.6017 55.0932 26.884C54.9481 26.7429 54.0782 26.884 53.9331 26.884C53.9331 26.884 54.0782 27.1663 54.0782 27.3075C53.788 27.0252 53.0632 27.0252 52.7729 26.884L52.918 27.3075C52.4835 26.884 51.179 26.884 50.5985 26.6017C51.6135 28.2949 51.3233 30.1277 52.1932 31.8201C51.9038 31.8201 51.4684 31.5386 51.3233 31.2563C51.3233 31.8201 51.179 31.9613 51.179 32.6664C48.4241 36.0512 49.4383 38.5899 49.0038 39.7176L49.4383 39.4361C48.5692 41.8336 51.179 45.7823 47.9887 46.9101C47.1188 47.0513 46.2489 47.1924 45.3789 47.4747C45.0895 47.6159 44.7992 47.7563 44.5098 47.8975C44.0744 48.3209 43.4947 48.7437 43.4947 49.3076C43.9293 49.1672 44.0744 49.026 44.2196 49.1672C44.2196 49.5899 43.9293 49.8722 44.0744 50.4361C44.3647 50.1538 44.9444 49.7311 45.3789 49.7311V49.7506C45.3705 50.1628 45.0895 50.4429 45.0895 50.8596C45.2346 50.7184 45.3789 50.7184 45.3789 50.7184C46.6842 50.1538 48.7135 51 50.3083 50.4361C52.3383 50.1538 53.2083 48.1798 53.6428 46.3462L53.9331 46.7697C54.0782 46.205 54.5135 45.3588 54.803 44.9361L54.9481 45.2184C55.2384 44.9361 55.0932 44.3722 55.2384 44.231C56.1075 43.6664 56.3977 42.2563 56.3977 41.5512V41.2697V40.8462C56.1075 40.2823 56.1075 40.1411 56.1075 39.8588C56.2488 39.9955 56.3669 39.9895 56.3754 40.1179L56.3977 40.1344V40.1411C57.4128 41.2697 57.9925 43.526 57.9925 43.9487L58.1376 43.3848C59.0075 44.3722 60.6023 45.5 60.6023 46.3462C60.6023 47.1924 59.5872 47.3336 59.0075 47.4747C58.4278 47.3336 56.8331 47.7563 56.3977 48.4621V48.7437C56.9774 48.7437 56.688 49.1672 56.3977 49.5899V50.2949C56.8331 50.1538 56.8331 50.1538 56.9774 50.1538C56.9774 50.4361 56.9774 50.5773 57.2677 51C58.2827 50.4361 59.5872 50.5773 60.8925 50.7184C61.9068 50.7184 63.0669 50.7184 63.9368 50.4361C64.3722 50.2949 64.5165 49.8722 64.5165 49.4487C64.8068 48.6025 64.5165 47.6159 65.2413 46.9101C66.6917 44.9361 65.6767 42.8202 65.8218 40.8462C65.6767 40.5639 65.8218 40.2823 65.6767 40.1411H65.8218C65.8218 39.0126 64.5165 37.4613 64.5165 36.6151C65.097 36.4739 65.3865 36.8974 65.3865 36.8974C67.1263 32.6664 64.9519 29.5638 65.2413 23.7815L65.6767 24.2042C65.6767 23.6403 65.8218 22.9353 65.5316 22.5125L66.1113 23.0764C65.9662 22.3714 65.9662 20.9605 65.8218 20.3966C65.9662 20.3966 66.2564 20.9605 66.4015 21.1017C66.2564 20.3966 66.1113 19.1277 66.1113 18.7042C65.5316 17.1529 66.2564 17.0118 65.2413 14.3327C64.9519 13.6277 65.6767 13.4865 65.9662 13.2042L70.606 10.384C71.6211 10.9479 71.7662 12.7815 70.4609 13.3453C70.8962 13.6277 71.3308 13.7681 71.6211 13.6277C72.0556 13.4865 72.3459 13.2042 72.6353 13.063C73.3609 11.6529 72.6353 10.8067 72.3459 9.96049L72.6353 9.67892C73.9406 9.96049 74.2308 9.11427 74.2308 8.69154C74.5203 8.40922 74.9556 8.8327 75.1008 8.8327L78 5.58901L73.6504 6.71679C73.7955 6.99911 73.3609 7.42184 73.3609 7.56301C72.6353 7.14027 72.0556 7.56301 71.7662 8.26806L71.6211 8.1269C71.0414 7.42184 71.1857 6.71679 71.6211 6.1529C72.0556 5.58901 72.7804 5.02436 73.3609 4.8832C72.7804 4.17815 72.2008 3.75542 71.6211 3.4731C67.9962 1.63951 63.9368 5.44785 65.9662 9.53776C67.2714 8.40922 67.9962 7.98574 69.8812 9.3966L64.9519 12.358C64.6617 12.0764 64.5165 12.0764 64.5165 11.9352C63.7917 10.1016 63.5023 8.1269 61.9068 7.14027C61.6173 6.43522 61.3271 5.87058 61.3271 5.30668L60.8925 4.8832V4.8817V4.74204C60.6023 4.60163 60.312 4.74204 59.8774 4.74204C59.5872 4.8832 59.2978 5.30668 59.0075 5.44785L58.7173 5.58901C58.2827 5.30668 58.1376 5.16552 57.9925 4.8832C57.703 4.74204 57.5579 4.46047 57.4128 4.46047C56.9774 4.74204 56.5429 5.02436 56.3977 5.44785V5.72942C54.9481 5.72942 54.3684 7.14027 53.6428 7.70417C52.7729 8.1269 51.7587 7.84533 51.0338 8.40922C51.0338 9.25543 51.7587 10.1016 52.0481 10.6655C52.1932 10.9479 51.9038 11.089 51.9038 11.2294C52.1932 11.6529 52.3383 11.6529 52.4835 12.0764C52.7729 12.2168 53.0632 12.2168 53.3534 12.2168C54.3684 12.7815 54.5135 14.0504 54.3684 14.7555C53.9331 15.3201 53.3534 16.0251 52.7729 16.0251L52.6286 15.884C51.4684 15.884 50.4534 15.1789 49.8737 14.3327C49.294 12.6403 49.4383 10.5244 48.1338 9.11427C47.2639 7.98574 46.5391 7.42184 45.3789 7.14027ZM45.3789 23.9226C45.0895 24.2042 44.7992 24.6277 44.5098 25.0512L45.3789 24.4865L46.2489 24.0638L46.1038 23.7815C45.8143 23.7815 45.6692 23.7815 45.3789 23.9226Z" fill="#D1DFEC"/>
<path fill-rule="evenodd" clip-rule="evenodd" d="M55.9699 0H60.2269H70.388H80V47.4622L79.7251 49.8852L79.1761 51.8809L78.2147 53.4487L76.8418 54.5884L75.3314 55.4436L73.6836 56.2989L70.388 57.0114L69.8389 57.1541L65.8568 57.8666L62.1489 58.4373L60.5011 59.0071L60.2269 59.1498L58.9907 59.7197L57.8926 60.7176L57.0687 62L56.1074 60.5749H55.9699L54.8719 59.7197L53.3608 58.8645L51.7137 58.2946L48.1432 57.5813L45.534 57.2967L44.0236 57.0114L41.9642 56.5842L40.3164 56.1562L38.5311 55.4436L37.1582 54.5884L35.7853 53.306L34.8239 51.7383L34.2749 49.8852L34 47.4622V0H41.9642H45.534H55.9699ZM60.2269 1.28243H55.9699H45.534H41.9642H35.2362V46.3217L35.5104 48.6027L35.9227 50.4551L36.8833 51.8809L38.1195 53.1633L39.6299 54.0186L41.2777 54.5884L41.9642 54.8738L44.7108 55.4436L45.534 55.5863L48.5555 56.1562L52.1253 56.8687L53.6356 57.4394L55.146 58.0093L55.9699 58.7218L56.3823 59.0071L57.0687 60.2896L57.8926 59.0071L58.9907 58.1519L60.2269 57.4394H60.3644L61.8747 56.8687L65.4445 56.1562L69.2892 55.729L70.388 55.4436L72.8597 54.7311L75.8805 53.306L77.116 52.0228L78.0773 50.5977L78.6263 48.6027L78.9012 46.3217V1.28243H70.388H60.2269Z" fill="#D1DFEC"/>
<path fill-rule="evenodd" clip-rule="evenodd" d="M70.1479 128.726C69.3162 128.863 68.6232 129 67.9303 129C66.2669 127.766 63.7718 125.71 61 124.75C64.4648 122.967 67.5141 121.597 70.1479 119.678C73.1972 117.483 75.6923 114.742 77.2169 110.218C78.1874 105.693 72.643 103.088 70.1479 105.282C69.4549 105.83 69.0387 106.653 68.9007 108.024C62.1084 108.024 63.0789 99.3868 70.1479 96.0963C71.6725 95.4109 73.6134 95 75.831 95C88.7219 95 93.0184 107.75 87.8902 117.346C84.8402 122.967 77.7719 127.491 70.1479 128.726Z" fill="#D1DFEC"/>
<path fill-rule="evenodd" clip-rule="evenodd" d="M70.7498 134.347C75.2651 138.04 78.5101 142.16 79.7796 146.563C81.0491 153.239 76.6758 161.051 70.7498 166.023C68.6338 167.727 66.2353 169.148 63.9773 170C62.9903 169.29 61.8613 168.438 60.7323 167.444C60.7323 166.307 60.4506 164.745 60.7323 163.182C64.6834 160.341 68.4926 154.233 67.646 148.835C66.517 144.716 63.8361 141.591 60.3093 139.034C59.0399 138.182 57.4872 137.188 55.9353 136.336C52.6903 134.631 49.0223 133.069 45.2131 131.506C44.0841 131.08 42.8147 130.512 41.5444 130.085C30.2574 125.256 20.3811 119.433 23.6261 104.801C25.6017 99.4037 28.9879 95.2844 35.9009 95C38.1582 95 39.9925 95.2844 41.5444 95.7101C43.0964 96.1367 44.2254 96.7046 45.2131 97.4155C50.5742 101.108 50.0101 107.5 45.2131 109.063C44.6483 109.205 43.9429 109.347 43.2376 109.347C43.2376 107.5 42.5322 106.364 41.5444 105.653C38.8635 103.807 33.7849 106.506 34.9131 111.335C36.3246 115.171 38.7231 117.444 41.5444 119.148C42.8147 119.858 43.9429 120.426 45.2131 120.853C47.3292 121.705 49.5864 122.415 51.8437 123.41C53.2551 123.978 54.6658 124.546 55.9353 125.256C57.4872 125.967 58.8987 126.677 60.3093 127.528C64.1185 129.517 67.646 131.79 70.7498 134.347Z" fill="#D1DFEC"/>
<path fill-rule="evenodd" clip-rule="evenodd" d="M70.2606 182.486C71.9045 185.329 72.8636 188.458 73 192.154C73 194.856 71.9045 197.273 70.2606 198.837C67.9319 201.112 64.6441 201.965 62.1782 199.548C60.2608 196.42 66.1509 195.425 66.1509 197.699C70.1235 197.699 67.1099 188.316 64.3706 184.476C63.4115 183.054 62.0418 181.775 60.1237 180.495C58.8911 179.642 57.3836 178.931 55.8768 178.078C52.7261 176.23 49.0277 174.381 45.4664 171.964C44.2331 171.111 43.1377 170.115 41.9044 169.12C37.2469 164.997 33.5485 159.451 33 151.347C33.6856 144.38 37.2469 138.693 41.9044 134.712C42.3157 134.427 42.5892 134.142 42.8634 134C43.6854 134.142 44.6445 134.427 45.4664 134.995C47.2467 135.706 48.8906 136.844 50.3974 137.27V141.536C47.658 144.949 46.1512 147.934 45.4664 150.636C45.0551 152.769 45.0551 154.617 45.4664 156.324C46.699 161.015 51.0822 164.713 55.8768 168.552C57.2465 169.547 58.754 170.685 60.1237 171.822C63.9592 174.95 67.7948 178.362 70.2606 182.486Z" fill="#D1DFEC"/>
<path fill-rule="evenodd" clip-rule="evenodd" d="M20.2237 59.6782C10.7485 57.6408 0.141556 55.6041 0 46C6.364 47.31 13.5766 49.2011 20.2237 51.3842C27.7194 53.8579 34.3665 56.6228 38.6087 59.0964C40.1643 60.4057 41.1544 62.0062 41.5783 63.8981C42.4277 66.5174 42.1446 69.5728 41.5783 72.3378C41.4375 73.5021 41.1544 74.5201 40.8713 75.5389C41.1544 75.3932 41.4375 75.1019 41.5783 74.957C42.8516 73.9383 43.9833 73.0652 45.2558 72.3378C48.6501 70.4459 52.3268 69.4272 56.0043 69.4272C57.5599 69.4272 58.9739 69.5728 60.388 69.7185C64.0654 70.4459 67.7421 72.1921 70.8534 74.957C71.1365 75.2476 71.4196 75.5389 71.8435 75.8301C70.9949 70.1554 70.571 63.1706 75.2378 59.2413C79.7631 56.7684 85.4208 54.294 92.2088 51.966C98.1488 49.9293 105.22 48.0375 112.999 46C113.139 56.4772 101.967 57.2046 92.2088 59.387C88.3905 60.2601 84.7138 61.4244 81.8849 63.4619C79.4808 65.7899 82.3089 70.0098 83.1574 73.2109C85.8448 77.1394 84.1476 82.378 80.8948 85.4334C82.0265 87.3253 86.5518 91.1082 88.3905 93H70.8534H60.388H56.0043H45.2558H41.5783H24.3251C24.8905 91.8356 30.5475 86.5978 31.6792 85.5791C28.568 82.8141 26.4461 78.1581 29.275 73.2109C30.9722 69.7185 34.5073 66.663 31.6792 63.1706C28.8503 61.4244 24.6082 60.5513 20.2237 59.6782ZM92.2088 61.2788C87.6835 62.8793 84.4307 64.6255 86.2687 66.0804C86.8349 67.5361 89.2391 67.9723 92.2088 67.8266C97.0172 67.3905 103.523 64.9168 106.21 60.8426C108.049 57.7864 98.8559 59.0964 92.2088 61.2788Z" fill="#D1DFEC"/>
<path fill-rule="evenodd" clip-rule="evenodd" d="M92.4155 68.5977C89.1513 69.7866 86.7386 71.6545 87.0227 74.0314C87.164 75.2203 89.4354 75.2203 92.4155 74.5413C98.3764 73.0134 106.608 69.1076 103.202 67.4088C101.924 66.5599 96.6733 67.0698 92.4155 68.5977Z" fill="#D1DFEC"/>
<path fill-rule="evenodd" clip-rule="evenodd" d="M91.5167 76.3937C89.2177 76.6302 87.0331 77.1811 87.0331 78.3626C86.6879 79.15 89.1026 79.15 91.5167 78.6775C94.1609 78.205 96.8052 77.1027 95.7701 76C95.3104 76.0788 93.356 76.1572 91.5167 76.3937Z" fill="#D1DFEC"/>
</g>
</svg>
