<svg width="137" height="125" viewBox="0 0 137 125" fill="none" xmlns="http://www.w3.org/2000/svg">
<path d="M118 36C127.389 36 135 28.3888 135 19C135 9.61116 127.389 2 118 2C108.611 2 101 9.61116 101 19C101 28.3888 108.611 36 118 36Z" fill="#FF4F00" stroke="white" stroke-width="3"/>
<path d="M123.728 21.624V24H114.56V21.624H117.968V13.248C117.824 13.44 117.6 13.64 117.296 13.848C116.992 14.056 116.656 14.248 116.288 14.424C115.92 14.6 115.536 14.752 115.136 14.88C114.736 14.992 114.384 15.048 114.08 15.048V12.576C114.4 12.576 114.768 12.48 115.184 12.288C115.616 12.096 116.024 11.872 116.408 11.616C116.808 11.36 117.152 11.104 117.44 10.848C117.744 10.592 117.92 10.408 117.968 10.296H120.68V21.624H123.728Z" fill="white"/>
<path d="M46.4969 98.8665L35.7793 91.7239L25.9055 106.23L46.4969 98.8665Z" fill="#CDE6F3"/>
<path d="M99.119 48.0594L7.02739 75.0826L29.074 89.6189L26.2208 105.754L36.8874 95.6531L63.9249 121.057L99.119 48.0594Z" fill="#F2F7FF"/>
<path d="M99.1191 48.0594L36.9658 96.6703L25.9642 106.24L28.6838 90.4741L99.1191 48.0594Z" fill="#DDEAF1"/>
</svg>
