<svg width="179" height="162" viewBox="0 0 179 162" fill="none" xmlns="http://www.w3.org/2000/svg">
<path d="M82.012 46.707C77.4268 46.707 73.4114 44.3316 71.1007 40.7532C70.2254 39.3979 68.7698 38.5402 67.1768 38.3726V67H38.3262C38.5398 65.4771 39.3848 64.0968 40.6926 63.254C44.2804 60.9546 46.6572 56.9449 46.6572 52.3714C46.6572 44.9458 40.3875 38.9767 32.835 39.4486C26.3412 39.8545 21.0689 45.1536 20.7074 51.6355C20.4378 56.5234 22.8856 60.8529 26.687 63.2742C27.9899 64.1066 28.8144 65.4924 29.0179 66.9997H0V17.5925C0 7.87743 7.89826 0 17.639 0H67.1771V29.1347C68.7548 28.9723 70.2153 28.1347 71.0805 26.7846C73.5081 22.998 77.8491 20.5515 82.7551 20.8207C89.2542 21.1813 94.5672 26.4397 94.9743 32.9212C95.4425 40.4486 89.4629 46.707 82.012 46.707Z" fill="#06408F"/>
<path d="M134 67.0581H105.023C105.144 68.7042 105.992 70.2333 107.383 71.1223C111.174 73.5456 113.616 77.8842 113.347 82.7763C112.986 89.2638 107.728 94.5674 101.251 94.9738C93.7185 95.4464 87.4653 89.4718 87.4653 82.0345C87.4653 77.4622 89.8355 73.4491 93.4142 71.1477C94.8202 70.2381 95.6883 68.7091 95.815 67.0581H67V38.4059C68.5888 38.5736 70.0402 39.4321 70.9135 40.7886C73.2178 44.3701 77.2226 46.7475 81.7961 46.7475C89.2269 46.7475 95.1911 40.4837 94.7241 32.9498C94.3181 26.4623 89.0191 21.1993 82.5372 20.8388C77.6442 20.5697 73.3146 23.0183 70.8934 26.8078C70.0305 28.1591 68.5739 28.9974 67.0003 29.1599V0H116.407C126.122 0 134 7.88427 134 17.6077V67.0581H134Z" fill="#BBE7FF"/>
<path d="M179 95V144.408C179 154.123 171.102 162 161.361 162H111.823V133.205C110.245 133.368 108.785 134.205 107.92 135.555C105.492 139.342 101.151 141.789 96.2449 141.514C89.7458 141.154 84.4328 135.895 84.0257 129.419C83.5575 121.886 89.5374 115.633 96.988 115.633C101.573 115.633 105.589 118.004 107.899 121.582C108.775 122.942 110.23 123.795 111.823 123.963V95.0003H140.715C140.587 96.6499 139.717 98.1776 138.307 99.0864C134.72 101.386 132.343 105.395 132.343 109.964C132.343 117.395 138.613 123.364 146.165 122.892C152.659 122.486 157.931 117.187 158.293 110.705C158.562 105.817 156.114 101.482 152.313 99.061C150.918 98.1728 150.068 96.645 149.946 95.0003L179 95Z" fill="#34BCFF"/>
<path d="M39.2759 101.118C39.6819 107.555 44.9809 112.781 51.4628 113.139C56.3558 113.412 60.6854 110.98 63.1066 107.217C63.9695 105.875 65.4261 105.043 66.9997 104.881V133.5H17.5924C7.87739 133.5 0 125.671 0 116.015V66.9089H28.942C28.739 65.4105 27.9166 64.0335 26.6172 63.2062C22.8258 60.7997 20.3841 56.4966 20.6534 51.6385C21.0139 45.1962 26.2723 39.9295 32.749 39.526C40.2815 39.057 46.5347 44.9896 46.5347 52.37C46.5347 56.9152 44.1645 60.9008 40.5858 63.1862C39.2815 64.0235 38.4387 65.3957 38.2256 66.9093H67V95.6947C65.4112 95.5282 63.9598 94.6808 63.0865 93.3286C60.7822 89.7721 56.7774 87.416 52.2039 87.416C44.7731 87.416 38.8089 93.6311 39.2759 101.118Z" fill="#65C7FA"/>
</svg>
