<svg width="152" height="209" viewBox="0 0 152 209" fill="none" xmlns="http://www.w3.org/2000/svg">
<path d="M55 110C24.6722 110 0 85.3278 0 55C0 24.6722 24.6722 0 55 0C85.3278 0 110 24.6722 110 55C110 85.3278 85.3278 110 55 110Z" fill="white"/>
<path fill-rule="evenodd" clip-rule="evenodd" d="M0 55C0 85.3278 24.6722 110 55 110C85.3278 110 110 85.3278 110 55C110 24.6722 85.3278 0 55 0C24.6722 0 0 24.6722 0 55ZM8.91892 55C8.91892 29.5904 29.5904 8.91892 55 8.91892C80.4096 8.91892 101.081 29.5904 101.081 55C101.081 80.4096 80.4096 101.081 55 101.081C29.5904 101.081 8.91892 80.4096 8.91892 55Z" fill="#4BBAED"/>
<path d="M55.3513 61L28 33.388L34.3277 27L55.3513 48.2228L67.6723 35.7856L74 42.1736L55.3513 61Z" fill="#06408F"/>
<path d="M132.717 152H63V90H152V132.81C152 143.391 143.349 152 132.717 152Z" fill="#FFE565"/>
<path d="M152 99H63V72H152V99Z" fill="#FFAB2D"/>
<path d="M132.5 152H131V131H152V132.5C152 143.252 143.252 152 132.5 152Z" fill="#FFB234"/>
<path d="M79 63H88V76H79V63Z" fill="#FF7462"/>
<path d="M127 63H136V76H127V63Z" fill="#FF7462"/>
<path d="M47.7502 208.092C47.3577 208.572 46.6423 208.572 46.2498 208.092C41.4282 202.192 15 168.902 15 148C15 127 35 118 47 118C59 118 79 127 79 148C79 168.902 52.5718 202.192 47.7502 208.092Z" fill="#06408F"/>
<path d="M46.5 160C52.8513 160 58 154.851 58 148.5C58 142.149 52.8513 137 46.5 137C40.1487 137 35 142.149 35 148.5C35 154.851 40.1487 160 46.5 160Z" fill="white"/>
</svg>
