<svg width="190" height="198" viewBox="0 0 190 198" fill="none" xmlns="http://www.w3.org/2000/svg">
<path d="M81 122H89V170H81V122Z" fill="#FFC800"/>
<path d="M12 16H157V128H12V16Z" fill="white"/>
<rect x="51" y="75" width="9" height="12" fill="#5098F9"/>
<rect x="64" y="69" width="9" height="18" fill="#C2EAFE"/>
<rect x="76" y="63" width="9" height="24" fill="#89D6FD"/>
<rect x="88" y="56" width="9" height="31" fill="currentColor"/>
<rect x="48" y="84" width="53" height="3" fill="#737878"/>
<path d="M87.5802 39L86.7962 41.9383L89.167 42.5583L55 62.3779L56.5518 65L90.6892 45.1976L90.0723 47.51L93.0402 48.2861L95 40.9403L87.5802 39Z" fill="#737878"/>
<path d="M0 6C0 2.68629 2.68629 0 6 0H162C165.314 0 168 2.68629 168 6V11C168 14.3137 165.314 17 162 17H6C2.68629 17 0 14.3137 0 11V6Z" fill="#763301"/>
<path d="M84.5 198C75.4021 198 68 190.598 68 181.5C68 172.402 75.4021 165 84.5 165C93.5979 165 101 172.402 101 181.5C101 190.598 93.5979 198 84.5 198Z" fill="#FF8B34"/>
<path d="M170.643 78H132.357C124.441 78 118 85.5905 118 94.92V111.84L151.5 125L185 111.84V94.92C185 85.5905 178.559 78 170.643 78Z" fill="#2C8657"/>
<path d="M151.5 39C163.926 39 174 49.0737 174 61.5C174 73.9263 163.926 84 151.5 84C139.074 84 129 73.9263 129 61.5C129 49.0737 139.074 39 151.5 39Z" fill="#FDD1A3"/>
<path d="M117 166.8V122H184V166.8L150.5 178L117 166.8Z" fill="#89D6FD"/>
<path d="M109 115C109 112.791 110.791 111 113 111H186C188.209 111 190 112.791 190 115V124C190 126.209 188.209 128 186 128H113C110.791 128 109 126.209 109 124V115Z" fill="currentColor"/>
<path d="M84.5 176C81.4678 176 79 178.468 79 181.5C79 184.532 81.4678 187 84.5 187C87.5322 187 90 184.532 90 181.5C90 178.468 87.5322 176 84.5 176Z" fill="white"/>
</svg>
