<svg width="57" height="58" viewBox="0 0 57 58" fill="none" xmlns="http://www.w3.org/2000/svg">
<path d="M28.844 0.171997C32.5933 0.171997 36.14 0.855997 39.484 2.224C42.8787 3.592 45.8427 5.54267 48.376 8.076C50.96 10.5587 52.9867 13.5987 54.456 17.196C55.976 20.7427 56.736 24.72 56.736 29.128C56.736 29.8373 56.6853 30.8 56.584 32.016C56.5333 33.1813 56.3813 34.4227 56.128 35.74C55.8747 37.0573 55.4947 38.4 54.988 39.768C54.532 41.136 53.8733 42.3773 53.012 43.492C52.1507 44.6067 51.0867 45.4933 49.82 46.152C48.604 46.8613 47.1347 47.216 45.412 47.216C44.0947 47.216 43.0307 47.0133 42.22 46.608C41.4093 46.2533 40.7507 45.772 40.244 45.164C39.788 44.5053 39.4587 43.7707 39.256 42.96C39.0533 42.1493 38.9013 41.3133 38.8 40.452C37.3307 41.972 35.4813 43.264 33.252 44.328C31.0227 45.3413 28.5653 45.848 25.88 45.848C22.1813 45.848 19.3187 44.8853 17.292 42.96C15.316 40.984 14.328 38.5013 14.328 35.512C14.328 33.536 14.7333 31.864 15.544 30.496C16.4053 29.128 17.52 28.0387 18.888 27.228C20.256 26.4173 21.776 25.8347 23.448 25.48C25.1707 25.1253 26.868 24.948 28.54 24.948C30.7187 24.948 32.6187 25.176 34.24 25.632C35.8613 26.0373 37.0773 26.392 37.888 26.696C37.888 25.024 37.736 23.504 37.432 22.136C37.1787 20.7173 36.6973 19.5267 35.988 18.564C35.3293 17.5507 34.392 16.7653 33.176 16.208C32.0107 15.6507 30.516 15.372 28.692 15.372C26.6653 15.372 24.7653 15.7013 22.992 16.36C21.2187 16.968 19.6227 17.804 18.204 18.868L16.684 15.144C18.508 13.928 20.4587 12.9907 22.536 12.332C24.664 11.6227 26.9187 11.268 29.3 11.268C32.2387 11.268 34.5693 11.7493 36.292 12.712C38.0147 13.6747 39.3067 14.916 40.168 16.436C41.0293 17.956 41.5613 19.6533 41.764 21.528C42.0173 23.352 42.144 25.1507 42.144 26.924V35.968C42.144 37.0827 42.1693 38.1213 42.22 39.084C42.3213 40.0467 42.4987 40.8827 42.752 41.592C43.0053 42.3013 43.3853 42.8587 43.892 43.264C44.4493 43.6693 45.1587 43.872 46.02 43.872C47.54 43.872 48.7813 43.34 49.744 42.276C50.7067 41.212 51.4667 39.92 52.024 38.4C52.632 36.8293 53.0373 35.208 53.24 33.536C53.4427 31.8133 53.544 30.2933 53.544 28.976C53.544 25.328 52.9107 21.9587 51.644 18.868C50.428 15.7267 48.7053 12.9907 46.476 10.66C44.2467 8.32933 41.612 6.50533 38.572 5.188C35.532 3.87067 32.2387 3.212 28.692 3.212C25.196 3.212 21.928 3.84533 18.888 5.112C15.848 6.37866 13.188 8.12667 10.908 10.356C8.67867 12.5853 6.90533 15.2707 5.588 18.412C4.32133 21.5027 3.688 24.872 3.688 28.52C3.688 32.0667 4.296 35.3853 5.512 38.476C6.728 41.5667 8.42533 44.252 10.604 46.532C12.7827 48.8627 15.3667 50.6867 18.356 52.004C21.3453 53.372 24.6133 54.056 28.16 54.056C30.44 54.056 32.492 53.7773 34.316 53.22C36.14 52.7133 37.9893 52.0293 39.864 51.168L40.928 54.056C38.8507 55.0693 36.7227 55.8293 34.544 56.336C32.416 56.8427 30.2627 57.096 28.084 57.096C24.284 57.096 20.712 56.3867 17.368 54.968C14.024 53.5493 11.0853 51.5733 8.552 49.04C6.06933 46.5067 4.09333 43.492 2.624 39.996C1.20533 36.5 0.496 32.6747 0.496 28.52C0.496 24.1627 1.28133 20.236 2.852 16.74C4.42267 13.244 6.5 10.28 9.084 7.848C11.7187 5.36533 14.7333 3.46533 18.128 2.148C21.5733 0.830664 25.1453 0.171997 28.844 0.171997ZM33.176 40.224C35.152 39.312 36.4187 38.2227 36.976 36.956C37.5333 35.6387 37.812 34.3213 37.812 33.004V30.192C37.1533 30.0907 35.988 29.7867 34.316 29.28C32.6947 28.7733 30.744 28.52 28.464 28.52C27.1467 28.52 25.9053 28.6467 24.74 28.9C23.5747 29.1027 22.536 29.4827 21.624 30.04C20.712 30.5467 19.9773 31.2307 19.42 32.092C18.9133 32.9027 18.66 33.9413 18.66 35.208C18.66 37.1333 19.344 38.7293 20.712 39.996C22.08 41.2627 23.904 41.896 26.184 41.896C27.4 41.896 28.616 41.744 29.832 41.44C31.0987 41.0853 32.2133 40.68 33.176 40.224Z" fill="#06408F"/>
</svg>
