<svg width="27" height="26" viewBox="0 0 27 26" fill="none" xmlns="http://www.w3.org/2000/svg">
<path fill-rule="evenodd" clip-rule="evenodd" d="M27 0H0V26H27V0ZM3 13C3 15.971 5.26449 18 8.25994 18C10.7681 18 12.0436 16.4638 12.6026 15.1739L10.1088 14.0145C9.86515 14.7681 9.11987 15.4203 8.25994 15.4203C6.86971 15.4203 5.93811 14.3478 5.93811 13C5.93811 11.6522 6.86971 10.5797 8.25994 10.5797C9.11987 10.5797 9.86515 11.2319 10.1088 11.9855L12.6026 10.8116C12.0293 9.47826 10.7681 8 8.25994 8C5.26449 8 3 10.0145 3 13ZM18.1492 17.8261H20.729V12.8261C20.729 11.6087 20.0267 10.6522 18.4215 10.6522C17.2033 10.6522 16.4436 11.1594 16.0423 11.6232V8.15942H13.4625V17.8261H16.0423V13.5072C16.2573 13.2609 16.5583 12.9565 17.1459 12.9565C17.7622 12.9565 18.1492 13.2029 18.1492 13.9275V17.8261ZM23.4664 18C22.6352 18 21.9329 17.2899 21.9329 16.4493C21.9329 15.6087 22.6352 14.8986 23.4664 14.8986C24.2977 14.8986 25 15.6087 25 16.4493C25 17.2899 24.2977 18 23.4664 18Z" fill="white"/>
</svg>
