<svg width="36" height="64" viewBox="0 0 36 64" fill="none" xmlns="http://www.w3.org/2000/svg">
<path fill-rule="evenodd" clip-rule="evenodd" d="M6.36095 19.2482C4.2497 18.5788 1.28515 18.1769 1.91388 19.1142C2.76742 20.3641 4.83371 21.1229 6.36095 21.212C7.34913 21.3014 8.06779 21.1229 8.29235 20.6766C8.8314 20.2748 7.79826 19.6945 6.36095 19.2482Z" fill="#06408F"/>
<path fill-rule="evenodd" clip-rule="evenodd" d="M6.37844 21.8234C7.42285 22.1396 8.24024 22.591 8.14934 23.2682C8.05844 23.5391 7.33194 23.5391 6.37844 23.3586C4.47119 22.9973 1.83744 21.9138 2.9273 21.4621C3.33612 21.2816 5.06157 21.372 6.37844 21.8234Z" fill="#06408F"/>
<path fill-rule="evenodd" clip-rule="evenodd" d="M6.392 25.2749C5.35913 24.9641 4.32627 24.3428 4.73033 23.7656C4.91012 23.8101 5.67353 23.8545 6.392 23.9875C7.29001 24.1208 8.14332 24.4314 8.14332 25.053C8.27817 25.5412 7.33496 25.5412 6.392 25.2749Z" fill="#06408F"/>
<path fill-rule="evenodd" clip-rule="evenodd" d="M14.4439 61.8143H14.581C14.6265 61.0931 16.5903 61.3636 16.0422 62.3553C15.6313 62.7608 15.0376 62.8962 14.4439 62.8511C14.033 62.806 13.6218 62.6257 13.2564 62.3553C12.5258 61.8143 11.9777 60.7776 12.1149 59.3803C12.2518 58.2985 12.5715 57.3517 13.2564 56.3149C13.5761 55.8191 13.9872 55.3684 14.4439 54.8275C14.581 54.6923 14.7179 54.557 14.8093 54.4219C15.2659 54.6472 15.8596 54.9628 16.4531 55.2782V55.9545C15.5399 56.7207 14.9462 57.2166 14.4439 57.8475C14.3067 58.028 14.1698 58.2082 14.0784 58.3884C13.3021 59.6057 13.5761 61.6341 14.4439 61.8143Z" fill="#06408F"/>
<path fill-rule="evenodd" clip-rule="evenodd" d="M17.8711 16.4617V16.7258C17.8183 16.6203 17.8711 16.5675 17.8711 16.4617Z" fill="#06408F"/>
<path fill-rule="evenodd" clip-rule="evenodd" d="M17.7689 51.9257C17.4524 51.6562 17.091 51.4316 16.7292 51.207L16.5938 43.0312L17.7689 43.66L19.125 44.289L18.8538 52.7344C18.5826 52.5098 18.1758 52.1953 17.7689 51.9257Z" fill="#06408F"/>
<path fill-rule="evenodd" clip-rule="evenodd" d="M17.7666 63.8438C17.4973 63.8438 17.228 63.7544 16.9587 63.5312L16.7344 55.4062L17.7666 55.9867L18.8438 56.6115L18.6194 63.5312C18.3052 63.7544 18.0359 63.8438 17.7666 63.8438Z" fill="#06408F"/>
<path fill-rule="evenodd" clip-rule="evenodd" d="M17.7445 38.5615L16.5868 37.9781L16.4531 29.8125H17.7445H19.125V36.677L19.0804 39.2344L17.7445 38.5615Z" fill="#06408F"/>
<path fill-rule="evenodd" clip-rule="evenodd" d="M19.1863 36.7031V29.8125H19.3449L19.1863 36.7031Z" fill="#06408F"/>
<path fill-rule="evenodd" clip-rule="evenodd" d="M17.77 6.38172L16.3764 7.23748L16.2864 7.10224L19.2308 5.35093L21.9511 3.72453L22.0411 3.81469L19.1638 5.57104L17.77 6.38172ZM13.1843 9.12882L12.6448 9.48921L12.5548 9.39905L13.1843 8.99383L13.8136 8.58861C13.8136 8.7236 13.8136 8.7236 13.8586 8.76868L13.1843 9.12882ZM14.3531 2.86901C14.3083 2.82394 14.2633 2.82394 14.2183 2.82394C14.2183 2.86901 14.2633 2.95893 14.2183 2.95893C14.0386 2.86901 13.9486 2.86901 13.8136 2.86901V2.91385C13.9036 3.00401 14.0386 3.139 13.9936 3.22916H13.7238L13.6788 3.31931C13.8136 3.49938 14.0386 3.67969 14.2183 3.81469L14.3083 5.6612C14.3083 5.71706 14.3351 5.77149 14.3555 5.82592C14.3679 5.85949 14.3531 5.89713 14.3531 5.93142C14.3981 6.02134 14.3981 6.11149 14.4431 6.20165L14.5331 6.06642C14.6228 6.20165 14.6228 6.4268 14.7128 6.51695L14.8028 6.47187C14.8476 6.56179 14.8926 6.65195 14.8926 6.69702C14.9376 6.83202 14.9826 6.83202 15.0726 6.87709C15.1624 6.87709 15.3871 6.92217 15.4771 7.01209V7.05717C15.3424 7.10224 15.2524 6.96725 15.1624 7.01209C14.8926 6.96725 14.6228 7.05717 14.3531 7.14732C13.9486 7.32739 13.6338 7.68777 13.5888 7.958C13.7238 7.86785 13.7688 7.77793 13.7688 7.86785C13.6788 7.958 13.6788 8.13807 13.7238 8.45338C13.8136 8.36322 13.9036 8.22823 13.9036 8.22823C13.8586 8.36322 13.8136 8.49845 13.8136 8.49845L13.1843 8.8586L12.375 9.35397C12.375 9.57936 12.375 9.62444 12.5998 9.71435C12.5998 9.71435 12.8695 9.53428 13.1843 9.35397C13.5438 9.12882 14.0386 8.8586 14.3531 8.67853C14.6678 8.49845 14.8926 8.36322 14.8926 8.31814L15.1176 8.58861C15.2524 8.81376 15.7019 8.7236 15.8816 8.90367V8.76868C15.9716 8.99383 16.5112 8.94875 16.6012 9.08375L16.5562 8.99383C16.6909 9.08375 16.8259 8.99383 16.9607 9.08375L16.9157 8.99383C16.9157 8.99383 17.3205 9.08375 17.3655 9.1739C17.3205 9.12882 17.0507 9.1739 17.0057 9.1739C17.0057 9.1739 17.0507 9.26406 17.0507 9.30913C16.9607 9.21898 16.7359 9.21898 16.6459 9.1739L16.6909 9.30913C16.5562 9.1739 16.1516 9.1739 15.9716 9.08375C16.2864 9.62444 16.1964 10.2097 16.4662 10.7502C16.3764 10.7502 16.2414 10.6603 16.1964 10.5701C16.1964 10.7502 16.1516 10.7953 16.1516 11.0204C15.2974 12.1013 15.6119 12.912 15.4771 13.2721L15.6119 13.1822C15.3424 13.9478 16.1516 15.2088 15.1624 15.5689C14.8926 15.614 14.6228 15.6591 14.3531 15.7493C14.2633 15.7943 14.1733 15.8392 14.0836 15.8842C13.9486 16.0195 13.7688 16.1545 13.7688 16.3345C13.9036 16.2897 13.9486 16.2446 13.9936 16.2897C13.9936 16.4247 13.9036 16.5149 13.9486 16.6949C14.0386 16.6048 14.2183 16.4698 14.3531 16.4698V16.476C14.3505 16.6077 14.2633 16.6971 14.2633 16.8302C14.3083 16.7851 14.3531 16.7851 14.3531 16.7851C14.7578 16.6048 15.3871 16.875 15.8816 16.6949C16.5112 16.6048 16.7809 15.9744 16.9157 15.3889L17.0057 15.5241C17.0507 15.3438 17.1857 15.0736 17.2755 14.9386L17.3205 15.0287C17.4105 14.9386 17.3655 14.7585 17.4105 14.7134C17.68 14.5331 17.77 14.0828 17.77 13.8577V13.7678V13.6325C17.68 13.4524 17.68 13.4074 17.68 13.3172C17.7238 13.3609 17.7604 13.3589 17.763 13.3999L17.77 13.4052V13.4074C18.0847 13.7678 18.2645 14.4883 18.2645 14.6233L18.3095 14.4432C18.5793 14.7585 19.0738 15.1186 19.0738 15.3889C19.0738 15.6591 18.759 15.7042 18.5793 15.7493C18.3995 15.7042 17.905 15.8392 17.77 16.0646V16.1545C17.9497 16.1545 17.86 16.2897 17.77 16.4247V16.6499C17.905 16.6048 17.905 16.6048 17.9497 16.6048C17.9497 16.6949 17.9497 16.74 18.0397 16.875C18.3545 16.6949 18.759 16.74 19.1638 16.7851C19.4783 16.7851 19.8381 16.7851 20.1078 16.6949C20.2428 16.6499 20.2876 16.5149 20.2876 16.3796C20.3776 16.1094 20.2876 15.7943 20.5123 15.5689C20.9621 14.9386 20.6473 14.2629 20.6923 13.6325C20.6473 13.5424 20.6923 13.4524 20.6473 13.4074H20.6923C20.6923 13.047 20.2876 12.5516 20.2876 12.2814C20.4676 12.2363 20.5573 12.3715 20.5573 12.3715C21.0969 11.0204 20.4226 10.0297 20.5123 8.18315L20.6473 8.31814C20.6473 8.13807 20.6923 7.91292 20.6023 7.77793L20.7821 7.958C20.7371 7.73285 20.7371 7.28232 20.6923 7.10224C20.7371 7.10224 20.8271 7.28231 20.8721 7.32739C20.8271 7.10224 20.7821 6.69702 20.7821 6.56179C20.6023 6.06641 20.8271 6.02134 20.5123 5.16582C20.4226 4.94067 20.6473 4.89559 20.7371 4.80544L22.1759 3.90484C22.4907 4.08491 22.5357 4.67044 22.1309 4.85052C22.2659 4.94067 22.4007 4.98551 22.4907 4.94067C22.6254 4.89559 22.7154 4.80544 22.8052 4.76036C23.0302 4.31006 22.8052 4.03984 22.7154 3.76961L22.8052 3.67969C23.2099 3.76961 23.2999 3.49938 23.2999 3.36439C23.3897 3.27423 23.5247 3.40947 23.5697 3.40947L24.4688 2.37364L23.1199 2.73378C23.1649 2.82394 23.0302 2.95893 23.0302 3.00401C22.8052 2.86901 22.6254 3.00401 22.5357 3.22916L22.4907 3.18408C22.3109 2.95893 22.3557 2.73378 22.4907 2.55371C22.6254 2.37364 22.8502 2.19333 23.0302 2.14825C22.8502 1.9231 22.6704 1.78811 22.4907 1.69795C21.3666 1.11242 20.1078 2.32856 20.7371 3.63462C21.1419 3.27423 21.3666 3.139 21.9511 3.58954L20.4226 4.53521C20.3326 4.4453 20.2876 4.4453 20.2876 4.40022C20.0628 3.81469 19.9731 3.18408 19.4783 2.86901C19.3885 2.64386 19.2985 2.46355 19.2985 2.28348L19.1638 2.14825V2.14777V2.10317C19.0738 2.05833 18.9838 2.10317 18.849 2.10317C18.759 2.14825 18.6693 2.28348 18.5793 2.32856L18.4893 2.37364C18.3545 2.28348 18.3095 2.2384 18.2645 2.14825C18.1747 2.10317 18.1297 2.01326 18.0847 2.01326C17.9497 2.10317 17.815 2.19333 17.77 2.32856V2.41848C17.3205 2.41848 17.1407 2.86901 16.9157 3.04908C16.6459 3.18408 16.3314 3.09416 16.1066 3.27423C16.1066 3.54446 16.3314 3.81469 16.4212 3.99476C16.4662 4.08491 16.3764 4.12999 16.3764 4.17483C16.4662 4.31006 16.5112 4.31006 16.5562 4.4453C16.6459 4.49013 16.7359 4.49013 16.8259 4.49013C17.1407 4.67044 17.1857 5.07566 17.1407 5.30081C17.0057 5.48112 16.8259 5.70627 16.6459 5.70627L16.6012 5.6612C16.2414 5.6612 15.9266 5.43605 15.7469 5.16582C15.5671 4.62537 15.6119 3.94968 15.2074 3.49938C14.9376 3.139 14.7128 2.95893 14.3531 2.86901ZM14.3531 8.22823C14.2633 8.31814 14.1733 8.45338 14.0836 8.58861L14.3531 8.4083L14.6228 8.27331L14.5778 8.18315C14.4881 8.18315 14.4431 8.18315 14.3531 8.22823Z" fill="#06408F"/>
<path fill-rule="evenodd" clip-rule="evenodd" d="M17.8225 0.0690918H19.2171H22.546H25.6949V15.0859L25.6049 15.8525L25.425 16.4839L25.1101 16.9799L24.6603 17.3406L24.1655 17.6111L23.6256 17.8817L22.546 18.1072L22.3661 18.1523L21.0615 18.3777L19.8468 18.5583L19.3069 18.7386L19.2171 18.7837L18.8121 18.9641L18.4524 19.2798L18.1825 19.6855L17.8675 19.2346H17.8225L17.4628 18.9641L16.9677 18.6935L16.4281 18.5132L15.2584 18.2875L14.4036 18.1974L13.9088 18.1072L13.2341 17.972L12.6943 17.8366L12.1094 17.6111L11.6596 17.3406L11.2099 16.9348L10.8949 16.4388L10.7151 15.8525L10.625 15.0859V0.0690918H13.2341H14.4036H17.8225ZM19.2171 0.474846H17.8225H14.4036H13.2341H11.03V14.725L11.1198 15.4467L11.2549 16.0328L11.5696 16.4839L11.9746 16.8897L12.4694 17.1602L13.0092 17.3406L13.2341 17.4308L14.1339 17.6111L14.4036 17.6563L15.3935 17.8366L16.563 18.062L17.0578 18.2426L17.5526 18.4229L17.8225 18.6483L17.9576 18.7386L18.1825 19.1444L18.4524 18.7386L18.8121 18.468L19.2171 18.2426H19.2622L19.757 18.062L20.9265 17.8366L22.186 17.7014L22.546 17.6111L23.3557 17.3857L24.3453 16.9348L24.7501 16.5288L25.0651 16.0779L25.2449 15.4467L25.335 14.725V0.474846H22.546H19.2171Z" fill="#06408F"/>
<path fill-rule="evenodd" clip-rule="evenodd" d="M22.519 40.8322C22.2487 40.877 22.0236 40.9219 21.7985 40.9219C21.2581 40.5186 20.4474 39.8467 19.5469 39.5331C20.6726 38.9507 21.6632 38.5028 22.519 37.8758C23.5096 37.1589 24.3203 36.2631 24.8156 34.7849C25.1309 33.3065 23.3296 32.4553 22.519 33.1722C22.2938 33.3513 22.1586 33.6201 22.1138 34.068C19.907 34.068 20.2223 31.2459 22.519 30.1707C23.0143 29.9468 23.6449 29.8125 24.3654 29.8125C28.5535 29.8125 29.9494 33.9785 28.2833 37.1141C27.2924 38.9507 24.9959 40.4289 22.519 40.8322Z" fill="#06408F"/>
<path fill-rule="evenodd" clip-rule="evenodd" d="M22.5092 42.2805C23.9462 43.4509 24.979 44.7562 25.383 46.1514C25.787 48.267 24.3952 50.7425 22.5092 52.3179C21.8357 52.858 21.0724 53.3081 20.3538 53.5781C20.0397 53.3531 19.6804 53.083 19.321 52.7681C19.321 52.408 19.2314 51.9129 19.321 51.4178C20.5785 50.5174 21.7908 48.5821 21.5214 46.8715C21.1621 45.5662 20.3088 44.576 19.1864 43.7658C18.7824 43.4957 18.2883 43.1808 17.7944 42.9108C16.7616 42.3706 15.5943 41.8755 14.382 41.3804C14.0227 41.2453 13.6186 41.0653 13.2144 40.9301C9.62222 39.3998 6.47901 37.5546 7.51176 32.9182C8.1405 31.2079 9.2182 29.9026 11.4183 29.8125C12.1367 29.8125 12.7205 29.9026 13.2144 30.0375C13.7083 30.1727 14.0676 30.3526 14.382 30.5779C16.0882 31.7481 15.9086 33.7735 14.382 34.2686C14.2022 34.3137 13.9777 34.3587 13.7532 34.3587C13.7532 33.7735 13.5288 33.4136 13.2144 33.1883C12.3612 32.6034 10.7449 33.4584 11.1039 34.9887C11.5531 36.2042 12.3165 36.9243 13.2144 37.4645C13.6186 37.6895 13.9777 37.8695 14.382 38.0046C15.0554 38.2747 15.7738 38.4997 16.4922 38.8148C16.9414 38.9948 17.3904 39.1748 17.7944 39.3998C18.2883 39.6251 18.7375 39.8501 19.1864 40.1199C20.3987 40.7502 21.5214 41.4703 22.5092 42.2805Z" fill="#06408F"/>
<path fill-rule="evenodd" clip-rule="evenodd" d="M22.4481 56.9917C22.9856 57.8928 23.2992 58.8844 23.3438 60.0559C23.3438 60.9122 22.9856 61.6783 22.4481 62.1739C21.6867 62.8949 20.6118 63.1653 19.8055 62.3992C19.1786 61.4079 21.1044 61.0924 21.1044 61.8133C22.4033 61.8133 21.418 58.8393 20.5223 57.6224C20.2088 57.1718 19.7609 56.7664 19.1338 56.3607C18.7308 56.0905 18.2379 55.865 17.7453 55.5946C16.7151 55.009 15.5059 54.4231 14.3416 53.657C13.9383 53.3866 13.5802 53.0711 13.1769 52.7556C11.6542 51.4488 10.4449 49.6914 10.2656 47.1228C10.4898 44.9148 11.6542 43.1123 13.1769 41.8505C13.3114 41.7603 13.4008 41.6701 13.4905 41.625C13.7592 41.6701 14.0728 41.7603 14.3416 41.9405C14.9236 42.1658 15.4611 42.5264 15.9538 42.6615V44.0134C15.0581 45.095 14.5655 46.0412 14.3416 46.8975C14.2071 47.5733 14.2071 48.1592 14.3416 48.7C14.7445 50.187 16.1777 51.3588 17.7453 52.5754C18.1931 52.8909 18.686 53.2515 19.1338 53.6119C20.3878 54.6032 21.6419 55.6848 22.4481 56.9917Z" fill="#06408F"/>
<path fill-rule="evenodd" clip-rule="evenodd" d="M6.42848 18.8273C3.41661 18.201 0.0449963 17.5748 0 14.6224C2.02292 15.0252 4.31557 15.6065 6.42848 16.2776C8.81113 17.038 10.924 17.888 12.2725 18.6485C12.767 19.0509 13.0817 19.543 13.2165 20.1245C13.4864 20.9297 13.3964 21.869 13.2165 22.719C13.1717 23.0769 13.0817 23.3899 12.9917 23.7031C13.0817 23.6583 13.1717 23.5687 13.2165 23.5242C13.6212 23.211 13.9809 22.9426 14.3854 22.719C15.4644 22.1374 16.6331 21.8243 17.802 21.8243C18.2965 21.8243 18.746 21.869 19.1955 21.9138C20.3644 22.1374 21.5331 22.6742 22.5221 23.5242C22.6121 23.6135 22.7021 23.7031 22.8368 23.7926C22.5671 22.0481 22.4323 19.9009 23.9158 18.693C25.3542 17.9328 27.1526 17.1721 29.3103 16.4565C31.1985 15.8304 33.4461 15.2488 35.9188 14.6224C35.9635 17.8432 32.4122 18.0669 29.3103 18.7378C28.0966 19.0062 26.9279 19.3641 26.0287 19.9905C25.2645 20.7061 26.1634 22.0033 26.4332 22.9874C27.2874 24.1951 26.7479 25.8055 25.7139 26.7448C26.0737 27.3264 27.5121 28.4893 28.0966 29.0708H22.5221H19.1955H17.802H14.3854H13.2165H7.73218C7.91192 28.7129 9.7101 27.1027 10.0698 26.7895C9.08087 25.9396 8.40641 24.5083 9.30561 22.9874C9.84509 21.9138 10.9688 20.9745 10.0698 19.9009C9.17062 19.3641 7.82217 19.0957 6.42848 18.8273ZM29.3103 19.3193C27.8718 19.8114 26.8379 20.3482 27.4221 20.7954C27.6021 21.2429 28.3663 21.377 29.3103 21.3322C30.8387 21.1981 32.9066 20.4377 33.7608 19.1853C34.3453 18.2457 31.4232 18.6485 29.3103 19.3193Z" fill="#06408F"/>
<path fill-rule="evenodd" clip-rule="evenodd" d="M29.2648 21.6557C28.2387 21.9691 27.4803 22.4616 27.5696 23.0884C27.6141 23.4018 28.328 23.4018 29.2648 23.2228C31.1385 22.8199 33.726 21.7901 32.6553 21.3422C32.2537 21.1183 30.6032 21.2528 29.2648 21.6557Z" fill="#06408F"/>
<path fill-rule="evenodd" clip-rule="evenodd" d="M29.3268 23.8465C28.4288 23.9795 27.5754 24.2894 27.5754 24.954C27.4406 25.3969 28.3838 25.3969 29.3268 25.1311C30.3597 24.8653 31.3926 24.2453 30.9883 23.625C30.8088 23.6693 30.0453 23.7134 29.3268 23.8465Z" fill="#06408F"/>
</svg>
